<?xml version="1.0" encoding="UTF-8"?>
<svg version="1.1" xmlns="http://www.w3.org/2000/svg" width="477" height="523">
<path d="M0 0 C1.22203125 0.24492188 2.4440625 0.48984375 3.703125 0.7421875 C20.46786548 4.38495383 36.1014691 10.94691243 50 21 C50.80308594 21.57363281 51.60617187 22.14726562 52.43359375 22.73828125 C66.51815372 33.25776544 79.00952492 45.87458534 88 61 C88.73283203 62.09441406 88.73283203 62.09441406 89.48046875 63.2109375 C98.23247571 76.5853181 103.01062677 92.42823661 106 108 C106.17608606 108.91071982 106.35217213 109.82143965 106.53359413 110.75975704 C107.05189412 114.36052193 107.13831233 117.80716058 107.15390015 121.44544983 C107.1582824 122.17392087 107.16266465 122.90239191 107.1671797 123.65293783 C107.18048471 126.08251145 107.18672756 128.51204888 107.19287109 130.94165039 C107.20077811 132.68809673 107.20904743 134.43454146 107.21765137 136.1809845 C107.2437845 141.90319272 107.25916222 147.62540799 107.2734375 153.34765625 C107.27879924 155.3194269 107.28417676 157.2911975 107.28956985 159.26296806 C107.31117857 167.46153283 107.32991772 175.66009568 107.34119225 183.85868168 C107.35745319 195.6044432 107.39070583 207.34987516 107.44759309 219.09551245 C107.48625224 227.35891289 107.50581968 235.622225 107.51111281 243.88571352 C107.51476945 248.82058138 107.52682557 253.75509702 107.55921555 258.68986702 C107.58922829 263.32832979 107.59563245 267.96622586 107.58383179 272.60476494 C107.58361054 274.30716436 107.59195809 276.0095896 107.60948563 277.7118988 C107.63211249 280.03579626 107.62391519 282.3576268 107.60800171 284.68153381 C107.61296693 286.63188081 107.61296693 286.63188081 107.61803246 288.62162876 C106.84193882 292.86401503 105.28093438 294.30063703 102 297 C98.57552734 299.32808372 95.54925029 299.26387437 91.46240234 299.29052734 C90.81463837 299.29724457 90.16687439 299.30396179 89.4994812 299.31088257 C87.36155475 299.32985039 85.22394284 299.33378701 83.0859375 299.3359375 C81.59103265 299.34236962 80.09612905 299.34909829 78.60122681 299.35610962 C75.46572965 299.36808172 72.33034262 299.37179086 69.19482422 299.37060547 C65.20037456 299.37040304 61.20664252 299.3976251 57.21236229 299.43214989 C54.12200766 299.45453055 51.03182214 299.45843951 47.94139481 299.45738602 C46.47035897 299.4597283 44.99931749 299.46847348 43.52836227 299.48405075 C34.96573279 299.56618868 27.71864865 299.05387155 20 295 C20 294.34 20 293.68 20 293 C19.360625 292.731875 18.72125 292.46375 18.0625 292.1875 C16 291 16 291 15 288 C13.68399807 287.29974209 12.345905 286.64090714 11 286 C9.05161702 284.54143397 7.13680333 283.0373953 5.25 281.5 C4.26515625 280.7059375 3.2803125 279.911875 2.265625 279.09375 C1.51796875 278.4028125 0.7703125 277.711875 0 277 C0 276.34 0 275.68 0 275 C-0.55558594 274.76410156 -1.11117187 274.52820313 -1.68359375 274.28515625 C-4.56375591 272.6872248 -6.66369076 270.694995 -9.0625 268.4375 C-12.82933217 264.95155012 -16.63199221 261.60422571 -20.625 258.375 C-24.19074283 255.48649178 -27.72273798 252.57180034 -31.1875 249.5625 C-31.92355469 248.92441406 -32.65960938 248.28632813 -33.41796875 247.62890625 C-35 246 -35 246 -35 244 C-35.680625 243.79375 -36.36125 243.5875 -37.0625 243.375 C-43.80383323 240.21948232 -49.095447 234.16860327 -54.0625 228.75 C-58.70512731 225.98417948 -63.68549721 226.16952162 -69 226 C-69.97385529 228.43247411 -70.94708147 230.86484012 -71.90234375 233.3046875 C-75.59021581 242.46174341 -79.92023875 251.3036061 -84.20703125 260.19140625 C-87.00741367 265.99801116 -89.7489866 271.83106267 -92.45043945 277.68432617 C-93.72253218 280.41451042 -95.03095109 283.05138186 -96.5859375 285.6328125 C-98.06572206 288.11002091 -99.10045494 290.55552718 -100.125 293.25 C-101.89952153 297.89952153 -101.89952153 297.89952153 -103 299 C-104.50418739 299.09311889 -106.01271356 299.11746028 -107.51977539 299.11352539 C-108.96115623 299.11341209 -108.96115623 299.11341209 -110.43165588 299.11329651 C-111.476436 299.10813522 -112.52121613 299.10297394 -113.59765625 299.09765625 C-115.19364906 299.09553383 -115.19364906 299.09553383 -116.82188416 299.09336853 C-120.23545083 299.08775064 -123.648953 299.07519511 -127.0625 299.0625 C-129.37044176 299.05748731 -131.67838455 299.052924 -133.98632812 299.04882812 C-139.65757426 299.0377754 -145.32878253 299.02101987 -151 299 C-150.21186453 294.52676007 -148.59907698 290.93169506 -146.5 286.9375 C-143.27871367 280.66543577 -140.29522984 274.32050983 -137.4375 267.875 C-134.43379188 261.12078446 -131.29542077 254.47395574 -127.9453125 247.8828125 C-121.60357397 235.328205 -115.69589109 222.54201336 -109.765625 209.7890625 C-107.56540772 205.06142935 -105.34825149 200.34183913 -103.125 195.625 C-102.73103027 194.78485352 -102.33706055 193.94470703 -101.93115234 193.07910156 C-101.5645752 192.30276367 -101.19799805 191.52642578 -100.8203125 190.7265625 C-100.49305176 190.03127441 -100.16579102 189.33598633 -99.82861328 188.61962891 C-99 187 -99 187 -98 186 C-96.36034714 185.88562133 -94.71581096 185.84039642 -93.07226562 185.82299805 C-92.02026978 185.81016281 -90.96827393 185.79732758 -89.88439941 185.78410339 C-88.73661011 185.77671646 -87.5888208 185.76932953 -86.40625 185.76171875 C-85.23042358 185.753647 -84.05459717 185.74557526 -82.84313965 185.73725891 C-80.34466028 185.72339249 -77.84616177 185.71268185 -75.34765625 185.70483398 C-71.5438979 185.68769776 -67.74102576 185.64384217 -63.9375 185.59960938 C-61.51042306 185.58947617 -59.08333872 185.58096204 -56.65625 185.57421875 C-55.52465454 185.55671066 -54.39305908 185.53920258 -53.22717285 185.52116394 C-42.7420992 185.54964001 -35.84656239 188.43689062 -28.5 195.8125 C-27.38415406 196.88946459 -26.2656602 197.96369242 -25.14453125 199.03515625 C-24.60908691 199.54836426 -24.07364258 200.06157227 -23.52197266 200.59033203 C-21.51152248 202.4524333 -19.38102639 204.1095908 -17.1875 205.75 C-13.37459157 208.60618965 -10.14318981 211.81481604 -6.83203125 215.23046875 C-4.92098836 217.18200463 -4.92098836 217.18200463 -2 219 C0.71147247 220.80764831 2.62276635 222.55265791 4.875 224.875 C8.05287667 228.14972624 11.34066191 230.82970468 15.04296875 233.48046875 C17.813921 235.6319666 20.16833593 238.11574697 22.5546875 240.6796875 C23.91983945 242.22481953 23.91983945 242.22481953 26 242 C25.27296875 240.56333984 25.27296875 240.56333984 24.53125 239.09765625 C20.8737381 231.84067357 17.29851583 224.55803045 13.875 217.1875 C11.28813661 211.63122646 8.55546072 206.2187314 5.5625 200.8671875 C2.52785615 195.29861604 -0.23942006 189.590918 -3.05371094 183.90869141 C-4.40376336 181.18559806 -5.76432102 178.46779597 -7.125 175.75 C-12.875 164.25 -12.875 164.25 -14.3515625 161.29296875 C-15.59235584 158.81432234 -16.83748898 156.33806681 -18.0859375 153.86328125 C-18.62371826 152.7944873 -18.62371826 152.7944873 -19.17236328 151.70410156 C-19.87482391 150.30809236 -20.5788502 148.91286954 -21.28466797 147.51855469 C-23.02018249 144.06480304 -24.6340822 140.61689459 -26 137 C-26.66 137 -27.32 137 -28 137 C-28.22945312 137.77085937 -28.45890625 138.54171875 -28.6953125 139.3359375 C-30.44642231 144.25372494 -32.64144871 148.91044859 -34.875 153.625 C-35.30941406 154.56601562 -35.74382812 155.50703125 -36.19140625 156.4765625 C-36.62066406 157.3840625 -37.04992187 158.2915625 -37.4921875 159.2265625 C-37.87745605 160.04721191 -38.26272461 160.86786133 -38.65966797 161.71337891 C-40.29390152 164.5013992 -41.32016486 166.12671204 -44 168 C-47.34272849 168.55105919 -50.63604579 168.46470846 -54.015625 168.390625 C-54.98659119 168.38496521 -55.95755737 168.37930542 -56.95794678 168.37347412 C-60.05580169 168.35110311 -63.15249533 168.30090473 -66.25 168.25 C-68.35154578 168.22993597 -70.45310972 168.21168503 -72.5546875 168.1953125 C-77.7035717 168.1512358 -82.85158903 168.08220258 -88 168 C-86.09932796 158.54553913 -86.09932796 158.54553913 -83.86328125 154.2734375 C-83.4544873 153.47719971 -83.04569336 152.68096191 -82.62451172 151.8605957 C-82.19154785 151.04034912 -81.75858398 150.22010254 -81.3125 149.375 C-80.40338952 147.60626888 -79.49584763 145.83673069 -78.58984375 144.06640625 C-78.14624512 143.20418457 -77.70264648 142.34196289 -77.24560547 141.45361328 C-75.5466558 138.10699545 -73.94536078 134.72095976 -72.375 131.3125 C-71.54935547 129.52585938 -71.54935547 129.52585938 -70.70703125 127.703125 C-70.43068848 127.10306641 -70.1543457 126.50300781 -69.86962891 125.88476562 C-65.02235894 115.37917209 -60.04669875 104.94756857 -54.8203125 94.625 C-53.67792292 92.36631904 -52.57496257 90.10147528 -51.4921875 87.8125 C-51.06164062 86.905 -50.63109375 85.9975 -50.1875 85.0625 C-49.83042969 84.29035156 -49.47335938 83.51820313 -49.10546875 82.72265625 C-48 81 -48 81 -45 80 C-40.62606902 79.64209837 -36.24367468 79.49078082 -31.85864258 79.33251953 C-29.7049917 79.25066481 -27.55306865 79.14699144 -25.40039062 79.04296875 C-24.02088406 78.99082758 -22.64132694 78.94000408 -21.26171875 78.890625 C-20.01350342 78.83938477 -18.76528809 78.78814453 -17.47924805 78.73535156 C-12.83822402 79.0883703 -9.61736982 80.42012646 -6.27294922 83.68701172 C-2.52579496 88.89706807 0.24761885 94.28001338 2.875 100.125 C6.2984821 107.53351842 9.94709706 114.60135339 14.078125 121.640625 C18.62986672 129.5969215 22.55069657 137.898219 26.4453125 146.19140625 C30.68860303 155.22266794 35.01589396 164.02265825 40.07421875 172.62890625 C43.27258417 178.22766762 46.07754274 184.01631004 48.91748047 189.80273438 C50.92535953 193.87826698 52.96529103 197.93781587 55 202 C55.77095811 203.54160427 56.54180281 205.08326527 57.3125 206.625 C57.869375 207.73875 58.42625 208.8525 59 210 C59.91787064 205.30852752 60.15936079 200.75014926 60.17700195 195.98535156 C60.18685875 194.81308769 60.18685875 194.81308769 60.19691467 193.61714172 C60.21654937 191.0416349 60.22829488 188.46618644 60.23828125 185.890625 C60.24235678 185.00289146 60.2464323 184.11515793 60.25063133 183.20052338 C60.27146095 178.49192034 60.28577012 173.78334609 60.29516602 169.07470703 C60.30616009 164.26061276 60.34048697 159.44698969 60.38033772 154.63306046 C60.40676297 150.89045482 60.41488103 147.14795647 60.41844749 143.40526581 C60.42325531 141.63381558 60.43469837 139.86236818 60.45348549 138.09101105 C60.64764019 118.55411981 57.74257456 98.1983338 45.6484375 82.21875 C44 80 44 80 42.42578125 77.32421875 C40.89972917 74.83654481 39.33428853 73.69034687 37 72 C37 71.34 37 70.68 37 70 C36.4225 69.7525 35.845 69.505 35.25 69.25 C32.67060021 67.81700012 30.93878408 66.21575324 29 64 C29 63.34 29 62.68 29 62 C28.11828125 61.73960937 27.2365625 61.47921875 26.328125 61.2109375 C23.04157245 60.01512613 20.62333985 58.59504439 17.75 56.625 C-1.83383299 43.97163874 -25.88225975 43.87501838 -48.11450195 48.22485352 C-53.77034404 49.45916727 -58.80403567 51.47029471 -64 54 C-64.96808594 54.46921875 -65.93617188 54.9384375 -66.93359375 55.421875 C-75.56412816 59.99969357 -82.97301807 65.25463328 -89 73 C-89.78375 73.7425 -90.5675 74.485 -91.375 75.25 C-105.58467694 90.13632822 -111.64149108 110.11864565 -111.46875 130.234375 C-111.4735954 131.64773506 -111.48076648 133.06108881 -111.4901123 134.47442627 C-111.51512275 138.89971528 -111.51000797 143.3246695 -111.5 147.75 C-111.48838968 152.90176325 -111.4898762 158.05285608 -111.52406311 163.20453644 C-111.53106166 165.24204408 -111.51461701 167.27843769 -111.49694824 169.31585693 C-111.53899895 177.07023102 -112.44578949 183.07910856 -116 190 C-116.35276001 190.69668289 -116.70552002 191.39336578 -117.06896973 192.11116028 C-118.01153626 193.9284927 -118.99867812 195.71445485 -120 197.5 C-122.64881648 202.33904453 -124.93954192 207.10961178 -126.87890625 212.28125 C-128.6820254 216.653971 -130.86841848 220.83079488 -133.0078125 225.04663086 C-134.92458635 228.83074503 -136.77503195 232.6232074 -138.5 236.5 C-140.8400851 241.75728579 -143.43455641 246.87032273 -146.04980469 251.99438477 C-148.6543662 257.15342007 -150.83460223 262.39966214 -152.796875 267.83984375 C-154 270 -154 270 -156.07519531 270.63500977 C-156.71038086 270.75545654 -157.34556641 270.87590332 -158 271 C-158.0468274 251.27580751 -158.08204131 231.55162637 -158.10362434 211.82738972 C-158.11391437 202.66802926 -158.12793099 193.50870345 -158.15087891 184.34936523 C-158.17088265 176.36130743 -158.18373294 168.37327473 -158.18817699 160.38519257 C-158.19077259 156.15991906 -158.19682544 151.93471733 -158.21146011 147.70946693 C-158.22515469 143.72289177 -158.22919895 139.73641716 -158.22621536 135.74982071 C-158.22676026 134.29591129 -158.23066637 132.8419981 -158.23841095 131.38810921 C-158.42967495 93.59027847 -144.01214405 61.87297759 -118 35 C-115.413779 32.55818728 -112.76313098 30.23848586 -110 28 C-109.24847656 27.37996094 -108.49695313 26.75992188 -107.72265625 26.12109375 C-77.21945734 2.35748255 -38.1911749 -7.79960614 0 0 Z " fill="#0169E8" transform="translate(267,109)"/>
<path d="M0 0 C1 2 1 2 0.44140625 4.05859375 C0.15136719 4.84363281 -0.13867188 5.62867188 -0.4375 6.4375 C-1.46835645 9.24346352 -2 10.97296354 -2 14 C-2.6290625 14.08378906 -3.258125 14.16757813 -3.90625 14.25390625 C-6.1314181 14.78098155 -6.1314181 14.78098155 -6.90625 16.71484375 C-7.1021875 17.44832031 -7.298125 18.18179688 -7.5 18.9375 C-8.55568804 22.511922 -9.67588155 26.01415788 -11 29.5 C-11.309375 30.3353125 -11.61875 31.170625 -11.9375 32.03125 C-13 34 -13 34 -16 35 C-16.1546875 36.8871875 -16.1546875 36.8871875 -16.3125 38.8125 C-16.82588933 43.52972945 -17.99038024 47.91750358 -19.30078125 52.46875 C-20.08012706 55.2900689 -20.6081087 58.10000441 -21 61 C-21.66 61 -22.32 61 -23 61 C-22.67 109.18 -22.34 157.36 -22 207 C-21.01 207 -20.02 207 -19 207 C-18.67 205.02 -18.34 203.04 -18 201 C-17.01 200.67 -16.02 200.34 -15 200 C-13.96961044 197.43957934 -13.96961044 197.43957934 -13.3125 194.4375 C-13.06113281 193.42558594 -12.80976562 192.41367187 -12.55078125 191.37109375 C-12.36902344 190.58863281 -12.18726562 189.80617188 -12 189 C-11.34 189 -10.68 189 -10 189 C-9.896875 188.360625 -9.79375 187.72125 -9.6875 187.0625 C-9.460625 186.381875 -9.23375 185.70125 -9 185 C-8.01 184.67 -7.02 184.34 -6 184 C-7.46462744 188.85204784 -9.48997698 193.14855916 -11.8125 197.625 C-14.87025612 203.57547076 -17.52326895 209.53652549 -19.796875 215.83984375 C-21 218 -21 218 -23.07519531 218.63500977 C-24.02797363 218.81567993 -24.02797363 218.81567993 -25 219 C-25.0468274 199.27580751 -25.08204131 179.55162637 -25.10362434 159.82738972 C-25.11391437 150.66802926 -25.12793099 141.50870345 -25.15087891 132.34936523 C-25.17088265 124.36130743 -25.18373294 116.37327473 -25.18817699 108.38519257 C-25.19077259 104.15991906 -25.19682544 99.93471733 -25.21146011 95.70946693 C-25.22515469 91.72289177 -25.22919895 87.73641716 -25.22621536 83.74982071 C-25.22676026 82.29591129 -25.23066637 80.8419981 -25.23841095 79.38810921 C-25.38059966 51.28859769 -17.75192968 22.27693136 0 0 Z " fill="#206CC2" transform="translate(134,161)"/>
<path d="M0 0 C10.00467377 10.00467377 13.09675556 34.10755868 13.15390015 47.44544983 C13.1582824 48.17392087 13.16266465 48.90239191 13.1671797 49.65293783 C13.18048471 52.08251145 13.18672756 54.51204888 13.19287109 56.94165039 C13.20077811 58.68809673 13.20904743 60.43454146 13.21765137 62.1809845 C13.2437845 67.90319272 13.25916222 73.62540799 13.2734375 79.34765625 C13.27879924 81.3194269 13.28417676 83.2911975 13.28956985 85.26296806 C13.31117857 93.46153283 13.32991772 101.66009568 13.34119225 109.85868168 C13.35745319 121.6044432 13.39070583 133.34987516 13.44759309 145.09551245 C13.48625224 153.35891289 13.50581968 161.622225 13.51111281 169.88571352 C13.51476945 174.82058138 13.52682557 179.75509702 13.55921555 184.68986702 C13.58922829 189.32832979 13.59563245 193.96622586 13.58383179 198.60476494 C13.58361054 200.30716436 13.59195809 202.0095896 13.60948563 203.7118988 C13.63211249 206.03579626 13.62391519 208.3576268 13.60800171 210.68153381 C13.61131186 211.98176515 13.614622 213.28199648 13.61803246 214.62162876 C12.83925639 218.87867811 11.38827913 220.38785234 8 223 C7.01 223 6.02 223 5 223 C5.33 222.01 5.66 221.02 6 220 C7.32 220 8.64 220 10 220 C10 219.01 10 218.02 10 217 C10.66 217 11.32 217 12 217 C11.76097714 195.8838453 11.51769987 174.76774331 11.26950932 153.6516943 C11.1543383 143.84472215 11.04050213 134.03773807 10.92993164 124.23071289 C10.83343112 115.67193279 10.73430055 107.11318764 10.63215441 98.55447298 C10.57827632 94.03270693 10.52561815 89.51093489 10.4761219 84.98911858 C10.23639318 61.6671204 10.23639318 61.6671204 9.59155273 38.35375977 C9.56272286 37.43672996 9.53389299 36.51970015 9.50418949 35.57488155 C9.46823894 34.7495873 9.43228838 33.92429304 9.39524841 33.07398987 C9.36723365 32.37538629 9.33921888 31.6767827 9.31035519 30.95700932 C9.0894371 28.92267893 9.0894371 28.92267893 7.98310947 26.97975063 C6.51273516 24.01876352 6.87509292 21.24758398 7 18 C6.34 18 5.68 18 5 18 C5 17.34 5 16.68 5 16 C4.34 16 3.68 16 3 16 C2.49411853 14.08487728 1.99551609 12.16783078 1.5 10.25 C1.2215625 9.18265625 0.943125 8.1153125 0.65625 7.015625 C0 4 0 4 0 0 Z " fill="#1465B6" transform="translate(361,183)"/>
<path d="M0 0 C2.22999573 -0.38768005 2.22999573 -0.38768005 5.04125977 -0.40405273 C6.09318008 -0.41673691 7.1451004 -0.42942108 8.22889709 -0.44248962 C9.94283913 -0.43808617 9.94283913 -0.43808617 11.69140625 -0.43359375 C12.86581772 -0.4388356 14.04022919 -0.44407745 15.25022888 -0.44947815 C17.74273894 -0.45591437 20.23527931 -0.45454082 22.7277832 -0.44604492 C26.52285896 -0.43758833 30.3164033 -0.46618995 34.11132812 -0.49804688 C36.53385372 -0.49966038 38.95638196 -0.49907852 41.37890625 -0.49609375 C42.50736465 -0.50732773 43.63582306 -0.51856171 44.79847717 -0.53013611 C51.50969519 -0.47151557 57.30236365 0.18956514 63 4 C63.99 5.485 63.99 5.485 65 7 C63.35 7.33 61.7 7.66 60 8 C60.33 7.01 60.66 6.02 61 5 C60.34 5 59.68 5 59 5 C59 4.34 59 3.68 59 3 C40.19 3 21.38 3 2 3 C1.34 4.65 0.68 6.3 0 8 C-1.5 10.3125 -1.5 10.3125 -3 12 C-3.66 12 -4.32 12 -5 12 C-4.54738642 10.56068883 -4.08767021 9.12361001 -3.625 7.6875 C-3.24214844 6.48673828 -3.24214844 6.48673828 -2.8515625 5.26171875 C-2 3 -2 3 0 0 Z " fill="#1B79DC" transform="translate(169,295)"/>
<path d="M0 0 C0.99 0 1.98 0 3 0 C6.80245282 9.09282196 7.15131885 17.69258816 7.11352539 27.47680664 C7.11367142 28.48273865 7.11381744 29.48867065 7.1139679 30.52508545 C7.11327626 33.82013168 7.10551918 37.11512 7.09765625 40.41015625 C7.09578941 42.70657826 7.09436676 45.00300067 7.09336853 47.29942322 C7.08956432 53.32124953 7.07975206 59.34305144 7.06866455 65.36486816 C7.05840523 71.51863271 7.05386125 77.67240123 7.04882812 83.82617188 C7.0381278 95.88412526 7.02107672 107.9420606 7 120 C6.67 119.34 6.34 118.68 6 118 C5.34 118 4.68 118 4 118 C4.06942307 117.35064484 4.13884613 116.70128967 4.21037292 116.03225708 C5.12919874 106.454525 5.20031851 96.9168522 5.23828125 87.3046875 C5.24439454 85.98134085 5.24439454 85.98134085 5.25063133 84.63125992 C5.27135751 79.96153257 5.28571685 75.29183343 5.29516602 70.62207031 C5.30620623 65.85523099 5.34061791 61.08886142 5.38033772 56.32218742 C5.40674766 52.60532899 5.41487916 48.88857863 5.41844749 45.17163467 C5.42325019 43.41693064 5.43467765 41.66222928 5.45348549 39.90761948 C5.57614317 27.70783586 4.02326024 16.80816675 1 5 C0.65280547 3.33616562 0.3123086 1.67073404 0 0 Z " fill="#0A3D75" transform="translate(322,207)"/>
<path d="M0 0 C1.43934943 5.24035653 0.51220309 10.02497187 -1.95703125 14.8828125 C-3.42357236 17.15677512 -4.54959043 18.77479522 -7 20 C-7.66 22.31 -8.32 24.62 -9 27 C4.53 27 18.06 27 32 27 C32 26.01 32 25.02 32 24 C32.99 24 33.98 24 35 24 C36.485 18.555 36.485 18.555 38 13 C38.66 13 39.32 13 40 13 C40 11.35 40 9.7 40 8 C40.66 8 41.32 8 42 8 C42 6.35 42 4.7 42 3 C42.66 3.99 43.32 4.98 44 6 C42.0923739 13.88485453 38.24825886 21.12089168 34 28 C31.6699002 29.1650499 30.32752923 29.1209358 27.73388672 29.11352539 C26.41274368 29.11341209 26.41274368 29.11341209 25.06491089 29.11329651 C24.11278717 29.10813522 23.16066345 29.10297394 22.1796875 29.09765625 C21.20589142 29.0962413 20.23209534 29.09482635 19.22879028 29.09336853 C16.11082927 29.08775973 12.9929394 29.07520573 9.875 29.0625 C7.76432395 29.05748613 5.65364678 29.05292303 3.54296875 29.04882812 C-1.63804521 29.03778745 -6.81901752 29.02104073 -12 29 C-11.00241878 23.96867402 -9.98877978 19.33725317 -7.6171875 14.74609375 C-7.17246094 13.87275391 -6.72773438 12.99941406 -6.26953125 12.09960938 C-5.80933594 11.22111328 -5.34914062 10.34261719 -4.875 9.4375 C-4.17310547 8.06754883 -4.17310547 8.06754883 -3.45703125 6.66992188 C-2.31376654 4.44172228 -1.16138644 2.21879199 0 0 Z " fill="#1E65B5" transform="translate(191,248)"/>
<path d="M0 0 C1 2 1 2 0.44140625 4.05859375 C0.15136719 4.84363281 -0.13867188 5.62867188 -0.4375 6.4375 C-1.46835645 9.24346352 -2 10.97296354 -2 14 C-2.6290625 14.08378906 -3.258125 14.16757813 -3.90625 14.25390625 C-6.1314181 14.78098155 -6.1314181 14.78098155 -6.90625 16.71484375 C-7.1021875 17.44832031 -7.298125 18.18179688 -7.5 18.9375 C-8.55568804 22.511922 -9.67588155 26.01415788 -11 29.5 C-11.309375 30.3353125 -11.61875 31.170625 -11.9375 32.03125 C-13 34 -13 34 -16 35 C-16.103125 36.258125 -16.20625 37.51625 -16.3125 38.8125 C-16.82588933 43.52972945 -17.99038024 47.91750358 -19.30078125 52.46875 C-20.08012706 55.2900689 -20.6081087 58.10000441 -21 61 C-21.66 61 -22.32 61 -23 61 C-23 62.65 -23 64.3 -23 66 C-23.33 66 -23.66 66 -24 66 C-25.65003795 43.31197817 -13.46212066 17.55429243 0 0 Z " fill="#0E5DB3" transform="translate(134,161)"/>
<path d="M0 0 C0 0.33 0 0.66 0 1 C-2.31 1 -4.62 1 -7 1 C-7 0.34 -7 -0.32 -7 -1 C-13.64717597 -2.57115068 -20.32820487 -3.79569967 -27.05834961 -4.9465332 C-30.40850975 -5.52322819 -33.70988232 -6.14660152 -37 -7 C-37 -7.66 -37 -8.32 -37 -9 C-58.45900718 -9.47979492 -58.45900718 -9.47979492 -79.7734375 -7.4375 C-83.57181249 -6.9224661 -87.16928278 -6.93323369 -91 -7 C-72.84298875 -25.15701125 -20.22587935 -8.06883485 0 0 Z " fill="#105CB3" transform="translate(299,119)"/>
<path d="M0 0 C0.66 0 1.32 0 2 0 C0.8716939 2.83703891 -0.27418684 5.66535013 -1.4375 8.48828125 C-1.95843006 9.76298131 -2.47926144 11.0377217 -3 12.3125 C-3.26039063 12.93833984 -3.52078125 13.56417969 -3.7890625 14.20898438 C-4.04429687 14.83740234 -4.29953125 15.46582031 -4.5625 16.11328125 C-4.90474609 16.94533081 -4.90474609 16.94533081 -5.25390625 17.79418945 C-7.88961032 25.58659333 -8.30442823 32.57513338 -8.33552551 40.79187965 C-8.34389513 42.93163461 -8.36446687 45.070979 -8.38806152 47.21061707 C-8.44413515 52.51658385 -8.47975253 57.82264955 -8.51568604 63.12878418 C-8.54692665 67.63099571 -8.58607751 72.133001 -8.63594055 76.63504601 C-8.65598553 78.74173621 -8.66431907 80.84826678 -8.67224121 82.95503235 C-8.68565552 84.2303331 -8.69906982 85.50563385 -8.71289062 86.81958008 C-8.72018188 87.94350662 -8.72747314 89.06743317 -8.73498535 90.22541809 C-9 93 -9 93 -11 96 C-11.14137888 88.10468975 -11.2467886 80.2096964 -11.31087303 72.31342506 C-11.34168953 68.64354201 -11.3831987 64.97454738 -11.45263672 61.30517578 C-11.80934979 41.95413867 -10.51079915 24.74375493 -5 6 C-4.34 6 -3.68 6 -3 6 C-3 5.01 -3 4.02 -3 3 C-2.34 3 -1.68 3 -1 3 C-0.67 2.01 -0.34 1.02 0 0 Z " fill="#113C7F" transform="translate(164,196)"/>
<path d="M0 0 C2.39530945 -0.36749268 2.39530945 -0.36749268 5.44018555 -0.35644531 C6.57864426 -0.35944641 7.71710297 -0.36244751 8.89006042 -0.36553955 C10.12645767 -0.35319275 11.36285492 -0.34084595 12.63671875 -0.328125 C13.90465775 -0.32625183 15.17259674 -0.32437866 16.47895813 -0.32244873 C19.16848341 -0.3157126 21.85725987 -0.30340543 24.54663086 -0.28125 C27.97843854 -0.25310964 31.41000973 -0.24205284 34.84192181 -0.2375679 C38.12771643 -0.23238273 41.4134549 -0.21784077 44.69921875 -0.203125 C46.53863289 -0.19675018 46.53863289 -0.19675018 48.41520691 -0.19024658 C54.04060319 -0.14342166 59.46043121 -0.01152496 65 1 C64.67 1.66 64.34 2.32 64 3 C42.22 3 20.44 3 -2 3 C-1.34 2.01 -0.68 1.02 0 0 Z " fill="#0F76F0" transform="translate(302,404)"/>
<path d="M0 0 C0.33 0 0.66 0 1 0 C1.00423194 0.73937207 1.00846388 1.47874414 1.01282406 2.24052143 C1.11605343 20.21717375 1.22467957 38.193786 1.33933926 56.17036915 C1.39465678 64.86364709 1.44813638 73.55692913 1.49731445 82.25024414 C1.54017429 89.82585124 1.58645686 97.40142829 1.63687855 104.97698897 C1.66346497 108.98951535 1.6883177 113.00203582 1.70907402 117.01459694 C1.72865442 120.78939037 1.75280244 124.5641267 1.78049088 128.33886909 C1.78985387 129.72601027 1.79753186 131.11316397 1.80341911 132.50032425 C1.81169293 134.3910545 1.82655858 136.28175251 1.84178162 138.17243958 C1.84823417 139.23157971 1.85468672 140.29071985 1.8613348 141.38195515 C1.88969954 144.11177911 1.88969954 144.11177911 3 147 C3.66 147 4.32 147 5 147 C5.33 146.01 5.66 145.02 6 144 C6.33 144.66 6.66 145.32 7 146 C6.22265625 147.7265625 6.22265625 147.7265625 5.0625 149.625 C4.381875 150.73875 3.70125 151.8525 3 153 C2.01 153 1.02 153 0 153 C0 102.51 0 52.02 0 0 Z " fill="#0C386D" transform="translate(109,227)"/>
<path d="M0 0 C3 1 3 1 4.1875 2.875 C5 5 5 5 5 8 C5.66 8 6.32 8 7 8 C7.66 10.97 8.32 13.94 9 17 C9.66 17 10.32 17 11 17 C11.68359375 18.69270833 12.3671875 20.38541667 13.05078125 22.078125 C13.95886912 24.07116533 13.95886912 24.07116533 15.44140625 25.890625 C17.23169917 28.31357782 18.39452742 30.7521962 19.625 33.5 C20.05039062 34.4384375 20.47578125 35.376875 20.9140625 36.34375 C22 39 22 39 22.5234375 41.28125 C22.75933594 42.13203125 22.75933594 42.13203125 23 43 C23.66 43.33 24.32 43.66 25 44 C25 45.32 25 46.64 25 48 C26.485 48.495 26.485 48.495 28 49 C28.3721042 50.32303717 28.70630173 51.65737935 29 53 C29.66 53.33 30.32 53.66 31 54 C31.7013284 56.32315031 32.36485174 58.65789079 33 61 C33.37125 61.70125 33.7425 62.4025 34.125 63.125 C35.23518586 65.50396971 35.14403872 67.40730309 35 70 C32.66279518 67.06649952 30.95444151 64.11856768 29.3125 60.75 C28.79429687 59.69554687 28.27609375 58.64109375 27.7421875 57.5546875 C27.16726563 56.38164062 26.59234375 55.20859375 26 54 C24.65069311 51.28923031 23.29396456 48.58219355 21.9375 45.875 C21.25117335 44.50266854 20.56497245 43.13027418 19.87890625 41.7578125 C19.5555127 41.11102539 19.23211914 40.46423828 18.89892578 39.79785156 C10.125 22.25 10.125 22.25 8.625 19.2421875 C7.44548156 16.88882138 6.25811298 14.54046247 5.0625 12.1953125 C4.74007324 11.55948242 4.41764648 10.92365234 4.08544922 10.26855469 C3.16628218 8.45638907 2.2433843 6.64611726 1.3203125 4.8359375 C0 2 0 2 0 0 Z " fill="#12559B" transform="translate(244,251)"/>
<path d="M0 0 C8.26494716 8.26494716 11.03687768 25.48353575 11.56811523 36.62231445 C11.60945052 37.45401563 11.65078581 38.2857168 11.69337368 39.14262104 C12.1152147 48.35955396 12.12632311 57.56839489 12.09765625 66.79296875 C12.09578406 68.60427307 12.09436396 70.41557792 12.09336853 72.22688293 C12.08960632 76.92350743 12.07983235 81.62009948 12.06866455 86.31671143 C12.05831254 91.13756878 12.05384181 95.95843154 12.04882812 100.77929688 C12.03820233 110.18621194 12.02120479 119.59310324 12 129 C11.67 129 11.34 129 11 129 C10.98969254 128.0864122 10.97938507 127.1728244 10.96876526 126.23155212 C10.86972819 117.51199549 10.7670892 108.79248965 10.66066074 100.07301998 C10.60609913 95.59305179 10.55280643 91.11307689 10.50268555 86.63305664 C10.25643509 62.43894266 10.25643509 62.43894266 9.58984375 38.25390625 C9.56112686 37.34374252 9.53240997 36.4335788 9.50282288 35.49583435 C9.46700607 34.67809036 9.43118927 33.86034637 9.39428711 33.01782227 C9.36644638 32.32938736 9.33860565 31.64095245 9.30992126 30.93165588 C9.08716186 28.91947035 9.08716186 28.91947035 7.98316956 26.98326111 C6.51421623 24.02007131 6.87503186 21.24917169 7 18 C6.34 18 5.68 18 5 18 C5 17.34 5 16.68 5 16 C4.34 16 3.68 16 3 16 C2.49411853 14.08487728 1.99551609 12.16783078 1.5 10.25 C1.2215625 9.18265625 0.943125 8.1153125 0.65625 7.015625 C0 4 0 4 0 0 Z " fill="#0B76E3" transform="translate(361,183)"/>
<path d="M0 0 C0.69279053 -0.0112793 1.38558105 -0.02255859 2.09936523 -0.03417969 C5.22113888 0.20112385 7.42804151 1.41307383 10.00390625 3.109375 C10.66390625 4.099375 11.32390625 5.089375 12.00390625 6.109375 C11.17487793 5.78340332 10.34584961 5.45743164 9.49169922 5.12158203 C5.64212208 4.0043801 2.16383417 3.85482531 -1.80078125 3.9140625 C-2.52476105 3.9168924 -3.24874084 3.91972229 -3.99465942 3.92263794 C-6.28697865 3.93375413 -8.57889438 3.95884188 -10.87109375 3.984375 C-12.43358807 3.9944159 -13.99608857 4.00353981 -15.55859375 4.01171875 C-19.37124713 4.03366527 -23.18360223 4.06813487 -26.99609375 4.109375 C-27.32609375 6.419375 -27.65609375 8.729375 -27.99609375 11.109375 C-29.64609375 10.779375 -31.29609375 10.449375 -32.99609375 10.109375 C-32.68671875 9.34625 -32.37734375 8.583125 -32.05859375 7.796875 C-31.31715782 5.92147823 -30.63381158 4.02252848 -29.99609375 2.109375 C-27.16754319 1.16652481 -25.15381129 0.9202504 -22.20703125 0.79296875 C-21.26472656 0.75107422 -20.32242188 0.70917969 -19.3515625 0.66601562 C-18.36800781 0.62669922 -17.38445312 0.58738281 -16.37109375 0.546875 C-14.93056641 0.48209961 -14.93056641 0.48209961 -13.4609375 0.41601562 C-8.9754558 0.22430236 -4.48917035 0.06806618 0 0 Z " fill="#1564AF" transform="translate(248.99609375,187.890625)"/>
<path d="M0 0 C3.97962112 4.41574398 6.18345932 9.27786035 8.625 14.625 C12.48793295 22.93622521 16.58177311 31.07707546 20.95166016 39.13330078 C21.35175293 39.87692871 21.7518457 40.62055664 22.1640625 41.38671875 C22.51936035 42.03858154 22.8746582 42.69044434 23.24072266 43.36206055 C24 45 24 45 24 47 C22 47 22 47 20.4375 45.7890625 C18.26717356 43.08794971 18.1459446 40.31451839 17.625 36.9609375 C17.41875 36.31382812 17.2125 35.66671875 17 35 C15.515 34.505 15.515 34.505 14 34 C13.6278958 32.67696283 13.29369827 31.34262065 13 30 C12.34 29.67 11.68 29.34 11 29 C10.5359375 27.5459375 10.5359375 27.5459375 10.0625 26.0625 C9.25255878 22.7319557 9.25255878 22.7319557 6 21 C5.48828125 18.6171875 5.48828125 18.6171875 5.3125 15.875 C5.21388672 14.50988281 5.21388672 14.50988281 5.11328125 13.1171875 C5.07589844 12.41851562 5.03851563 11.71984375 5 11 C4.34 11 3.68 11 3 11 C3 10.01 3 9.02 3 8 C2.34 8 1.68 8 1 8 C0.67 5.36 0.34 2.72 0 0 Z " fill="#105AAC" transform="translate(302,274)"/>
<path d="M0 0 C1.01054862 3.03164585 1.0265912 4.51750751 0.6875 7.625 C0.56955078 8.81996094 0.56955078 8.81996094 0.44921875 10.0390625 C0.30097656 10.68617188 0.15273437 11.33328125 0 12 C-0.99 12.495 -0.99 12.495 -2 13 C-2.495 14.2375 -2.495 14.2375 -3 15.5 C-4 18 -4 18 -6 19 C-5.87625 20.0828125 -5.87625 20.0828125 -5.75 21.1875 C-6.07743148 24.87110419 -7.46093936 26.38626111 -10 29 C-10.66 29 -11.32 29 -12 29 C-11.938125 29.94875 -11.87625 30.8975 -11.8125 31.875 C-11.874375 32.90625 -11.93625 33.9375 -12 35 C-12.99 35.66 -13.98 36.32 -15 37 C-16.27611763 33.1716471 -15.48433613 32.183221 -13.8671875 28.5546875 C-13.39023438 27.47703125 -12.91328125 26.399375 -12.421875 25.2890625 C-11.91140625 24.16242188 -11.4009375 23.03578125 -10.875 21.875 C-10.14410156 20.21984375 -10.14410156 20.21984375 -9.3984375 18.53125 C-6.55813458 12.17078441 -3.51869228 6.01295516 0 0 Z " fill="#12549D" transform="translate(163,307)"/>
<path d="M0 0 C3.87858112 4.32712452 6.06596874 9.01542842 8.4375 14.25 C11.08669889 20.04772323 13.85011519 25.67095358 17.06665039 31.17871094 C18 33 18 33 18 35 C17.34 35 16.68 35 16 35 C15.67 35.99 15.34 36.98 15 38 C13.19533017 36.19533017 13.58507442 33.26897184 13.37890625 30.8125 C13.25386719 30.214375 13.12882812 29.61625 13 29 C12.34 28.67 11.68 28.34 11 28 C11 27.34 11 26.68 11 26 C10.34 26 9.68 26 9 26 C7.47266242 22.04280717 6.00255177 18.16933964 4.9375 14.0625 C4.628125 13.051875 4.31875 12.04125 4 11 C3.34 10.67 2.68 10.34 2 10 C0.55487596 6.3871899 0 3.93312158 0 0 Z " fill="#1465BD" transform="translate(277,225)"/>
<path d="M0 0 C0.43570313 0.37511719 0.87140625 0.75023437 1.3203125 1.13671875 C4.17649657 3.59105874 7.03933829 6.03264241 9.9375 8.4375 C21.36018957 17.99526066 21.36018957 17.99526066 25 23 C22.8125 23.3125 22.8125 23.3125 20 23 C17.3125 20.5625 17.3125 20.5625 15 18 C14.34 17.67 13.68 17.34 13 17 C13 16.34 13 15.68 13 15 C11.35 14.67 9.7 14.34 8 14 C7.34 12.02 6.68 10.04 6 8 C5.34 8 4.68 8 4 8 C1.875 6.25 1.875 6.25 0 4 C0 2.68 0 1.36 0 0 Z " fill="#1466C8" transform="translate(236,303)"/>
<path d="M0 0 C1.58206057 0.00667536 3.16410534 0.0186375 4.74609375 0.03515625 C5.55240234 0.03966797 6.35871094 0.04417969 7.18945312 0.04882812 C9.18753131 0.06065107 11.18557158 0.07858711 13.18359375 0.09765625 C13.51359375 1.74765625 13.84359375 3.39765625 14.18359375 5.09765625 C13.6525 4.78054688 13.12140625 4.4634375 12.57421875 4.13671875 C9.63823527 2.86062135 7.12185046 2.68058604 3.93359375 2.47265625 C2.8559375 2.39789063 1.77828125 2.323125 0.66796875 2.24609375 C-0.151875 2.19710938 -0.97171875 2.148125 -1.81640625 2.09765625 C-2.09613281 2.79761719 -2.37585938 3.49757813 -2.6640625 4.21875 C-3.04433594 5.16878906 -3.42460937 6.11882812 -3.81640625 7.09765625 C-4.20699219 8.07863281 -4.59757813 9.05960937 -5 10.0703125 C-5.41378906 11.08996094 -5.82757813 12.10960937 -6.25390625 13.16015625 C-6.66511719 14.18238281 -7.07632813 15.20460938 -7.5 16.2578125 C-8.70585874 18.85917541 -10.00228554 20.8921509 -11.81640625 23.09765625 C-12.109375 17.140625 -12.109375 17.140625 -11.81640625 15.09765625 C-10.82767279 14.08651524 -9.82609079 13.08787699 -8.81640625 12.09765625 C-7.63323103 9.41212049 -7.63323103 9.41212049 -6.69140625 6.47265625 C-4.53920388 0.11615158 -4.53920388 0.11615158 0 0 Z " fill="#155CAC" transform="translate(199.81640625,332.90234375)"/>
<path d="M0 0 C0.99 0 1.98 0 3 0 C6.71709845 8.88871367 7.15572498 17.28025235 7.09765625 26.84765625 C7.0962413 27.74495956 7.09482635 28.64226288 7.09336853 29.5667572 C7.0878251 32.39870714 7.07528358 35.23057445 7.0625 38.0625 C7.05747767 39.99674364 7.05291606 41.93098853 7.04882812 43.86523438 C7.03787429 48.57685417 7.02064953 53.28841313 7 58 C6.67 58 6.34 58 6 58 C5.30335662 52.21537189 4.95324869 46.53691546 5.07421875 40.71484375 C5.33169597 28.1326477 4.26534347 17.14340585 1 5 C0.65039671 3.33667008 0.30891001 1.67136576 0 0 Z " fill="#0B4D93" transform="translate(322,207)"/>
<path d="M0 0 C0.33 0 0.66 0 1 0 C1.01030746 0.90566711 1.02061493 1.81133423 1.03123474 2.7444458 C1.12920383 11.27862751 1.23171754 19.81273991 1.33933926 28.34680557 C1.39450846 32.73427088 1.44791884 37.12174293 1.49731445 41.50927734 C1.54504657 45.74331157 1.59739252 49.97726589 1.65294075 54.21120453 C1.67332423 55.82670859 1.69204387 57.44223452 1.70907402 59.0577774 C1.73320687 61.3201742 1.76324905 63.58242099 1.79467773 65.84472656 C1.81022202 67.13268127 1.8257663 68.42063599 1.84178162 69.74761963 C1.96987927 72.38083003 2.337964 74.48183208 3 77 C2.505 77.495 2.505 77.495 2 78 C1.92820036 79.51928038 1.91607993 81.04167482 1.9375 82.5625 C1.94652344 83.38878906 1.95554687 84.21507812 1.96484375 85.06640625 C1.97644531 85.70449219 1.98804688 86.34257812 2 87 C1.01 87.495 1.01 87.495 0 88 C0 58.96 0 29.92 0 0 Z " fill="#0669D4" transform="translate(329,235)"/>
<path d="M0 0 C0.33 0 0.66 0 1 0 C0.88490339 1.41750563 0.75746342 2.83401169 0.625 4.25 C0.55539063 5.03890625 0.48578125 5.8278125 0.4140625 6.640625 C-0.01507113 9.085877 -0.78600638 10.84836903 -2 13 C-2.66 13 -3.32 13 -4 13 C-4 13.99 -4 14.98 -4 16 C10.85 16 25.7 16 41 16 C41 16.33 41 16.66 41 17 C25.16 17 9.32 17 -7 17 C-6.10465713 12.52328567 -4.99789901 9.67678319 -2.9375 5.6875 C-2.38964844 4.61886719 -1.84179688 3.55023438 -1.27734375 2.44921875 C-0.64505859 1.23685547 -0.64505859 1.23685547 0 0 Z " fill="#195AA6" transform="translate(123,391)"/>
<path d="M0 0 C0.33 0.66 0.66 1.32 1 2 C0.36669922 3.84423828 0.36669922 3.84423828 -0.6953125 6.0703125 C-1.08203125 6.885 -1.46875 7.6996875 -1.8671875 8.5390625 C-2.28226563 9.39242188 -2.69734375 10.24578125 -3.125 11.125 C-3.516875 11.95515625 -3.90875 12.7853125 -4.3125 13.640625 C-9.76153658 25.00168819 -9.76153658 25.00168819 -13 29 C-13.99 29.33 -14.98 29.66 -16 30 C-16 25.38 -16 20.76 -16 16 C-15.67 16 -15.34 16 -15 16 C-15 18.31 -15 20.62 -15 23 C-14.01 23 -13.02 23 -12 23 C-11.67 21.02 -11.34 19.04 -11 17 C-10.01 16.67 -9.02 16.34 -8 16 C-6.96961044 13.43957934 -6.96961044 13.43957934 -6.3125 10.4375 C-6.06113281 9.42558594 -5.80976562 8.41367187 -5.55078125 7.37109375 C-5.36902344 6.58863281 -5.18726562 5.80617188 -5 5 C-4.34 5 -3.68 5 -3 5 C-2.87625 4.360625 -2.7525 3.72125 -2.625 3.0625 C-2.41875 2.381875 -2.2125 1.70125 -2 1 C-1.34 0.67 -0.68 0.34 0 0 Z " fill="#1271D4" transform="translate(127,345)"/>
<path d="M0 0 C0.495 0.99 0.495 0.99 1 2 C-0.00901367 2.05534912 -1.01802734 2.11069824 -2.05761719 2.16772461 C-5.8075152 2.37444686 -9.55711246 2.58624361 -13.30664062 2.79956055 C-14.928308 2.89111151 -16.55005329 2.98129324 -18.171875 3.07006836 C-20.50542778 3.198042 -22.8386544 3.33096607 -25.171875 3.46484375 C-26.25647003 3.52272316 -26.25647003 3.52272316 -27.36297607 3.58177185 C-30.68979492 3.77718467 -33.79454754 4.07871794 -37 5 C-38.41534778 5.06456879 -39.83337689 5.08611039 -41.25 5.0625 C-43.10625 5.0315625 -43.10625 5.0315625 -45 5 C-35.97104481 -4.02895519 -11.75153632 -0.1019554 0 0 Z " fill="#165694" transform="translate(253,107)"/>
<path d="M0 0 C2.51676549 0.03680558 5.03206388 0.04101623 7.54907227 0.04052734 C9.16562135 0.05035098 10.78216058 0.06200469 12.39868164 0.07568359 C13.51446342 0.07902206 13.51446342 0.07902206 14.65278625 0.08242798 C19.02632455 0.16160542 22.62267766 0.80644838 26.69165039 2.41162109 C26.69165039 3.07162109 26.69165039 3.73162109 26.69165039 4.41162109 C25.91305664 4.26724609 25.13446289 4.12287109 24.33227539 3.97412109 C9.81892855 1.56637692 -4.59423302 1.35509093 -19.01660156 4.43188477 C-22.30583128 5.13038547 -24.04824131 5.49832386 -27.30834961 4.41162109 C-18.29646241 -0.03947192 -9.8107553 -0.14860395 0 0 Z " fill="#0C3F80" transform="translate(239.308349609375,152.58837890625)"/>
<path d="M0 0 C0.33 0 0.66 0 1 0 C0.93870512 8.89307148 0.86153898 17.78582408 0.76428509 26.67857552 C0.71961767 30.80815797 0.68035373 34.93764261 0.65356445 39.06738281 C0.627495 43.05518496 0.5870673 47.04260993 0.53681374 51.03017807 C0.52016954 52.54910453 0.50864003 54.0680962 0.50238609 55.58710098 C0.49271792 57.72008763 0.46462874 59.85211468 0.43237305 61.98486328 C0.42126999 63.1973172 0.41016693 64.40977112 0.39872742 65.65896606 C-0.0402307 69.33710285 -1.16440237 71.80783653 -3 75 C-3.33 75 -3.66 75 -4 75 C-3.125 67.25 -3.125 67.25 -2 65 C-1.88485413 63.00948878 -1.8330751 61.01519599 -1.81054688 59.02148438 C-1.79382935 57.76678345 -1.77711182 56.51208252 -1.7598877 55.21936035 C-1.75320572 54.54713943 -1.74652374 53.87491852 -1.73963928 53.18232727 C-1.71862475 51.08122721 -1.69160156 48.98028154 -1.66296387 46.87927246 C-1.60325286 42.4195741 -1.55109432 37.95980432 -1.5 33.5 C-1.44080409 28.33304253 -1.37854676 23.16616154 -1.30812073 17.99934387 C-1.28150955 15.92646738 -1.26071767 13.85358331 -1.2401123 11.78063965 C-1.22339478 10.52593872 -1.20667725 9.27123779 -1.18945312 7.97851562 C-1.17066101 6.31544373 -1.17066101 6.31544373 -1.15148926 4.61877441 C-1 2 -1 2 0 0 Z " fill="#1276E2" transform="translate(153,223)"/>
<path d="M0 0 C0.66 0 1.32 0 2 0 C2.433125 0.9590625 2.433125 0.9590625 2.875 1.9375 C3.82823451 4.15206079 3.82823451 4.15206079 6 5 C6.68346682 6.65984798 7.34588315 8.32836805 8 10 C8.69521168 11.1952293 9.40429281 12.38246886 10.125 13.5625 C12 17 12 17 12 21 C12.66 21 13.32 21 14 21 C17.42857143 28.28571429 17.42857143 28.28571429 17 33 C15.68 33 14.36 33 13 33 C13.33 32.34 13.66 31.68 14 31 C13.51433019 28.10542287 12.48476764 25.79817166 11.07421875 23.2421875 C10.69128662 22.53827881 10.30835449 21.83437012 9.91381836 21.10913086 C9.5091333 20.37186768 9.10444824 19.63460449 8.6875 18.875 C5.36248742 12.7234312 2.32326314 6.61236432 0 0 Z " fill="#1263BF" transform="translate(279,321)"/>
<path d="M0 0 C0 0.99 0 1.98 0 3 C0.763125 3.268125 1.52625 3.53625 2.3125 3.8125 C4.91706367 4.96335371 6.15871605 5.89567548 8 8 C8.66 8.66 9.32 9.32 10 10 C10.33 10.66 10.66 11.32 11 12 C11.66 12 12.32 12 13 12 C13 13.65 13 15.3 13 17 C10.5 15.625 10.5 15.625 8 14 C8 13.34 8 12.68 8 12 C7.13375 11.62875 7.13375 11.62875 6.25 11.25 C3.67060021 9.81700012 1.93878408 8.21575324 0 6 C0 5.34 0 4.68 0 4 C-0.969375 3.71125 -1.93875 3.4225 -2.9375 3.125 C-6 2 -6 2 -7 0 C-4.3333581 -1.33332095 -2.83319697 -0.67102033 0 0 Z " fill="#1157AA" transform="translate(296,167)"/>
<path d="M0 0 C2.29055786 -0.36076355 2.29055786 -0.36076355 5.18408203 -0.34057617 C6.80553635 -0.34023628 6.80553635 -0.34023628 8.45974731 -0.33988953 C9.63060883 -0.32440567 10.80147034 -0.30892181 12.0078125 -0.29296875 C13.8014473 -0.28660149 13.8014473 -0.28660149 15.63131714 -0.28010559 C19.46277071 -0.26326902 23.29370453 -0.22560684 27.125 -0.1875 C29.71744034 -0.17245964 32.30988889 -0.15877011 34.90234375 -0.14648438 C41.26840748 -0.11334918 47.63416662 -0.0631003 54 0 C54 0.33 54 0.66 54 1 C36.51 1 19.02 1 1 1 C0.67 3.31 0.34 5.62 0 8 C-1.4375 10.4375 -1.4375 10.4375 -3 12 C-3.66 12 -4.32 12 -5 12 C-4.54738642 10.56068883 -4.08767021 9.12361001 -3.625 7.6875 C-3.24214844 6.48673828 -3.24214844 6.48673828 -2.8515625 5.26171875 C-2 3 -2 3 0 0 Z " fill="#1B4681" transform="translate(169,295)"/>
<path d="M0 0 C4.61923294 1.62611295 8.56510501 4.03241526 12.6875 6.625 C13.74227539 7.28508057 13.74227539 7.28508057 14.81835938 7.95849609 C20.54914522 11.59998765 25.84918323 15.56732595 31 20 C29.68 21.32 28.36 22.64 27 24 C27 22.35 27 20.7 27 19 C25.35 18.34 23.7 17.68 22 17 C22 16.34 22 15.68 22 15 C19.69 14.34 17.38 13.68 15 13 C14.67 11.68 14.34 10.36 14 9 C12.906875 8.731875 11.81375 8.46375 10.6875 8.1875 C7.2356132 7.07587544 6.24595351 6.58284654 4 4 C3.01 3.67 2.02 3.34 1 3 C0.67 2.01 0.34 1.02 0 0 Z " fill="#10529E" transform="translate(299,120)"/>
<path d="M0 0 C8.85575871 5.64715048 17.64074543 11.5209939 24 20 C21.625 20.1875 21.625 20.1875 19 20 C18.34 19.01 17.68 18.02 17 17 C16.01 16.67 15.02 16.34 14 16 C13.67 15.01 13.34 14.02 13 13 C11.3663139 11.63169753 11.3663139 11.63169753 9.4375 10.4375 C7.49609375 9.18359375 7.49609375 9.18359375 6 8 C6 7.34 6 6.68 6 6 C5.38125 5.7525 4.7625 5.505 4.125 5.25 C1.62519797 3.77952822 1.16683978 2.58596924 0 0 Z " fill="#0F58A3" transform="translate(265,330)"/>
<path d="M0 0 C1.43934943 5.24035653 0.51220309 10.02497187 -1.95703125 14.8828125 C-3.42357236 17.15677512 -4.54959043 18.77479522 -7 20 C-7.72693904 21.97888961 -8.39816251 23.97954558 -9 26 C-9.66 26 -10.32 26 -11 26 C-10.52030851 19.85586646 -7.72290485 14.99657854 -4.9375 9.625 C-4.46505859 8.69816406 -3.99261719 7.77132812 -3.50585938 6.81640625 C-2.34442498 4.54046409 -1.17566933 2.26861227 0 0 Z " fill="#0F55A5" transform="translate(191,248)"/>
<path d="M0 0 C2.60447688 2.60447688 3.6151133 5.56984394 4.9375 8.9375 C5.20256348 9.6082959 5.46762695 10.2790918 5.74072266 10.97021484 C8.51432448 18.12498243 11.24864078 25.23688236 11 33 C10.33333333 31.66666667 9.66666667 30.33333333 9 29 C8.62875 28.401875 8.2575 27.80375 7.875 27.1875 C6.64001129 24.10002823 6.87354812 21.28774877 7 18 C6.34 18 5.68 18 5 18 C5 17.34 5 16.68 5 16 C4.34 16 3.68 16 3 16 C2.49411853 14.08487728 1.99551609 12.16783078 1.5 10.25 C1.2215625 9.18265625 0.943125 8.1153125 0.65625 7.015625 C0 4 0 4 0 0 Z " fill="#145EB1" transform="translate(361,183)"/>
<path d="M0 0 C0 0.66 0 1.32 0 2 C-0.99 2 -1.98 2 -3 2 C-3.33 2.99 -3.66 3.98 -4 5 C-6 6.33333333 -8 7.66666667 -10 9 C-10.33 9.99 -10.66 10.98 -11 12 C-11.886875 12.103125 -12.77375 12.20625 -13.6875 12.3125 C-17.06466995 13.01342207 -19.09429201 14.22428956 -22 16 C-22.66 15.67 -23.32 15.34 -24 15 C-19.94855739 11.63816464 -15.69850104 8.70955791 -11.3125 5.8125 C-10.63638672 5.36197266 -9.96027344 4.91144531 -9.26367188 4.44726562 C-2.5627694 0 -2.5627694 0 0 0 Z " fill="#1260B3" transform="translate(181,122)"/>
<path d="M0 0 C0.33 0 0.66 0 1 0 C1.1875 3.3125 1.1875 3.3125 1 7 C0.00962133 8.00952964 -0.99134248 9.00873313 -2 10 C-2.92216745 12.22951053 -2.92216745 12.22951053 -3.5625 14.625 C-4.25390625 17.0390625 -4.25390625 17.0390625 -5 19 C-5.66 19.33 -6.32 19.66 -7 20 C-8.13350534 22.01669827 -8.13350534 22.01669827 -9 24 C-9.66 24 -10.32 24 -11 24 C-9.39323547 18.54406329 -6.94969106 13.6697853 -4.375 8.625 C-3.95476562 7.79355469 -3.53453125 6.96210938 -3.1015625 6.10546875 C-2.07133925 4.06843641 -1.03741179 2.03337811 0 0 Z " fill="#0F54A5" transform="translate(204,221)"/>
<path d="M0 0 C0 3 0 3 -1 6 C-1.99 6.33 -2.98 6.66 -4 7 C-4.825 7.99 -5.65 8.98 -6.5 10 C-9 13 -9 13 -12 14 C-13.36892281 15.99116046 -14.47171693 18.06323921 -15.62109375 20.1875 C-17.28184981 22.37047681 -18.33409919 22.63775446 -21 23 C-19.32579906 18.83986433 -16.33343139 15.844774 -13.3125 12.625 C-12.77592773 12.04790283 -12.23935547 11.47080566 -11.68652344 10.8762207 C-8.00311865 6.95691371 -4.21421874 3.35221945 0 0 Z " fill="#1865BB" transform="translate(156,138)"/>
<path d="M0 0 C0.66 0 1.32 0 2 0 C0.8716939 2.83703891 -0.27418684 5.66535013 -1.4375 8.48828125 C-4.06793535 14.90444448 -6.60820634 21.18021109 -8 28 C-8.33 28 -8.66 28 -9 28 C-8.3622098 20.47407567 -6.80110167 13.32901118 -5 6 C-4.34 6 -3.68 6 -3 6 C-3 5.01 -3 4.02 -3 3 C-2.34 3 -1.68 3 -1 3 C-0.67 2.01 -0.34 1.02 0 0 Z " fill="#1259A7" transform="translate(164,196)"/>
<path d="M0 0 C3.44811001 3.95271147 5.64707625 7.96751715 7.8125 12.6875 C8.29879883 13.70166992 8.29879883 13.70166992 8.79492188 14.73632812 C9.59655546 16.46147107 10.30617191 18.22874701 11 20 C10.67 20.66 10.34 21.32 10 22 C7.37613513 18.93882432 7 18.26826873 7 14 C6.01 14 5.02 14 4 14 C2.375 11.5625 2.375 11.5625 1 9 C0.67 8.67 0.34 8.34 0 8 C-0.14115161 5.32941149 -0.04247107 2.67567762 0 0 Z " fill="#0F4F94" transform="translate(261,194)"/>
<path d="M0 0 C0.99 0.33 1.98 0.66 3 1 C1.48353457 6.06637313 -0.17490065 10.55200916 -2.94921875 15.09375 C-5.03466649 18.87701579 -6.47405217 22.96597833 -8 27 C-8.33 27 -8.66 27 -9 27 C-9.24042276 22.91281305 -8.42258812 19.82320557 -7 16 C-6.34 16 -5.68 16 -5 16 C-5 14.68 -5 13.36 -5 12 C-4.34 12 -3.68 12 -3 12 C-3 10.35 -3 8.7 -3 7 C-2.34 6.67 -1.68 6.34 -1 6 C-0.34227572 2.97065509 -0.34227572 2.97065509 0 0 Z " fill="#16589F" transform="translate(173,380)"/>
<path d="M0 0 C2.9375 0.8125 2.9375 0.8125 6 2 C6.33 2.99 6.66 3.98 7 5 C8.32 5 9.64 5 11 5 C11.33 3.68 11.66 2.36 12 1 C15 5.625 15 5.625 15 9 C14.34 9 13.68 9 13 9 C12.67 9.66 12.34 10.32 12 11 C5.125 7.375 5.125 7.375 4 4 C1.98491642 3.26676204 1.98491642 3.26676204 0 3 C0 2.01 0 1.02 0 0 Z " fill="#1372D5" transform="translate(285,349)"/>
<path d="M0 0 C1.46440151 4.65658609 0.49434941 8.44579228 -1 13 C-3 16.375 -3 16.375 -5 19 C-5.66 19.99 -6.32 20.98 -7 22 C-7.66 22 -8.32 22 -9 22 C-6.66062389 14.33204498 -3.45231194 7.22862726 0 0 Z " fill="#0E55AA" transform="translate(146,342)"/>
<path d="M0 0 C1.32 0 2.64 0 4 0 C4 0.66 4 1.32 4 2 C5.32 2 6.64 2 8 2 C8.33 3.32 8.66 4.64 9 6 C10.32 6 11.64 6 13 6 C13.66 6.66 14.32 7.32 15 8 C15.33 8 15.66 8 16 8 C16 9.65 16 11.3 16 13 C16.66 13 17.32 13 18 13 C17.67 13.66 17.34 14.32 17 15 C15.2925002 13.71937515 13.62626404 12.38232443 12 11 C12 10.34 12 9.68 12 9 C11.319375 8.79375 10.63875 8.5875 9.9375 8.375 C6.05852171 6.55930804 3.03879438 4.00376505 0 1 C0 0.67 0 0.34 0 0 Z " fill="#135FB6" transform="translate(220,344)"/>
<path d="M0 0 C1 2 1 2 0.44140625 4.05859375 C0.15136719 4.84363281 -0.13867188 5.62867188 -0.4375 6.4375 C-1.46835645 9.24346352 -2 10.97296354 -2 14 C-2.804375 14.28875 -3.60875 14.5775 -4.4375 14.875 C-7.1326468 15.73262568 -7.1326468 15.73262568 -8 18 C-8.66 18 -9.32 18 -10 18 C-8.6948802 13.5730861 -6.9640877 10.04331547 -4.4375 6.1875 C-3.81746094 5.23230469 -3.19742188 4.27710938 -2.55859375 3.29296875 C-1 1 -1 1 0 0 Z " fill="#0E59AD" transform="translate(134,161)"/>
<path d="M0 0 C5.1985352 3.95508154 9.10826 8.0832601 12 14 C12 14.66 12 15.32 12 16 C9.5625 15.3125 9.5625 15.3125 7 14 C6.1875 11.375 6.1875 11.375 6 9 C5.01 8.67 4.02 8.34 3 8 C0 2.77777778 0 2.77777778 0 0 Z " fill="#1264B9" transform="translate(341,153)"/>
<path d="M0 0 C1.79206547 0.14084796 3.58364917 0.28783701 5.375 0.4375 C6.87160156 0.55931641 6.87160156 0.55931641 8.3984375 0.68359375 C11 1 11 1 13 2 C13 2.99 13 3.98 13 5 C15.97 5 18.94 5 22 5 C22 5.33 22 5.66 22 6 C15.20626425 7.69843394 9.61499641 5.92258516 3 4 C3 3.34 3 2.68 3 2 C2.01 1.67 1.02 1.34 0 1 C0 0.67 0 0.34 0 0 Z " fill="#0D71EB" transform="translate(284,400)"/>
<path d="M0 0 C0.33 0.66 0.66 1.32 1 2 C-0.19932452 4.6681269 -1.45240314 7.22808583 -2.8125 9.8125 C-6.178813 16.28026383 -6.178813 16.28026383 -9 23 C-10.14266516 19.64102455 -9.85911331 17.69549648 -8.6875 14.375 C-8.29111328 13.21097656 -8.29111328 13.21097656 -7.88671875 12.0234375 C-7 10 -7 10 -5 8 C-4.35232207 5.42938689 -4.35232207 5.42938689 -4 3 C-3.34 3 -2.68 3 -2 3 C-2 2.34 -2 1.68 -2 1 C-1.34 0.67 -0.68 0.34 0 0 Z " fill="#0F58A8" transform="translate(138,322)"/>
<path d="M0 0 C1.32 0 2.64 0 4 0 C3.40312566 3.34249629 2.26396123 5.46436342 0 8 C-0.66 8 -1.32 8 -2 8 C-1.938125 8.94875 -1.87625 9.8975 -1.8125 10.875 C-1.874375 11.90625 -1.93625 12.9375 -2 14 C-2.99 14.66 -3.98 15.32 -5 16 C-6.39211215 11.82366356 -4.9535579 10.21039485 -3.0625 6.3125 C-2.49660156 5.13300781 -1.93070313 3.95351563 -1.34765625 2.73828125 C-0.90292969 1.83464844 -0.45820313 0.93101562 0 0 Z " fill="#0D63C1" transform="translate(153,328)"/>
<path d="M0 0 C-2.67312924 2.19578473 -4.67118118 3.19649201 -8 4 C-8.33 4.66 -8.66 5.32 -9 6 C-15.20277595 8.34067017 -15.20277595 8.34067017 -18.23046875 7.046875 C-18.81441406 6.70140625 -19.39835938 6.3559375 -20 6 C-3.95307918 -1.31769306 -3.95307918 -1.31769306 0 0 Z " fill="#15539C" transform="translate(201,115)"/>
<path d="M0 0 C2.31 0.66 4.62 1.32 7 2 C7 2.99 7 3.98 7 5 C8.32 5 9.64 5 11 5 C11.12375 5.928125 11.12375 5.928125 11.25 6.875 C11.81258459 9.18437567 11.81258459 9.18437567 14.0625 10.25 C14.701875 10.4975 15.34125 10.745 16 11 C15.67 11.99 15.34 12.98 15 14 C12.68404334 12.04563141 10.37217632 10.08676589 8.0625 8.125 C7.40314453 7.56941406 6.74378906 7.01382812 6.06445312 6.44140625 C5.43603516 5.90644531 4.80761719 5.37148438 4.16015625 4.8203125 C3.57886963 4.32805176 2.99758301 3.83579102 2.39868164 3.32861328 C1 2 1 2 0 0 Z " fill="#1056A6" transform="translate(238,359)"/>
<path d="M0 0 C0.66 0.66 1.32 1.32 2 2 C1.56579779 5.9540116 -0.47819772 9.63293865 -2.0625 13.25 C-2.34416016 13.8996875 -2.62582031 14.549375 -2.91601562 15.21875 C-3.6079385 16.81369086 -4.303599 18.40700934 -5 20 C-5.33 20 -5.66 20 -6 20 C-6.042721 18.33388095 -6.04063832 16.66617115 -6 15 C-5.67 14.67 -5.34 14.34 -5 14 C-4.896875 12.96875 -4.79375 11.9375 -4.6875 10.875 C-3.88724711 6.36448373 -2.42718738 3.83652198 0 0 Z " fill="#1057AC" transform="translate(145,302)"/>
<path d="M0 0 C0.33 0.66 0.66 1.32 1 2 C0.3190918 3.95532227 0.3190918 3.95532227 -0.80078125 6.31640625 C-1.20103516 7.16267578 -1.60128906 8.00894531 -2.01367188 8.88085938 C-2.44228516 9.76580078 -2.87089844 10.65074219 -3.3125 11.5625 C-3.72951172 12.45130859 -4.14652344 13.34011719 -4.57617188 14.25585938 C-7.73928571 20.86964286 -7.73928571 20.86964286 -10 22 C-6.92482916 10.47835991 -6.92482916 10.47835991 -5 5 C-4.34 5 -3.68 5 -3 5 C-2.814375 4.0409375 -2.814375 4.0409375 -2.625 3.0625 C-2.41875 2.381875 -2.2125 1.70125 -2 1 C-1.34 0.67 -0.68 0.34 0 0 Z " fill="#125399" transform="translate(127,345)"/>
<path d="M0 0 C0.33 0 0.66 0 1 0 C1.66 3.96 2.32 7.92 3 12 C3.66 12 4.32 12 5 12 C5.33 11.01 5.66 10.02 6 9 C6.33 9.66 6.66 10.32 7 11 C6.22265625 12.7265625 6.22265625 12.7265625 5.0625 14.625 C4.0415625 16.295625 4.0415625 16.295625 3 18 C2.01 18 1.02 18 0 18 C0 12.06 0 6.12 0 0 Z " fill="#113F72" transform="translate(109,362)"/>
<path d="M0 0 C2 3 2 3 1.75 4.875 C-0.51599566 11.29532102 -3.59830247 17.11032951 -7 23 C-7.33 22.34 -7.66 21.68 -8 21 C-7.01789629 18.9911515 -6.01559401 16.99212671 -5 15 C-4.30092586 12.26427415 -4.30092586 12.26427415 -4 10 C-3.34 10 -2.68 10 -2 10 C-2 8.35 -2 6.7 -2 5 C-1.34 5 -0.68 5 0 5 C0 3.35 0 1.7 0 0 Z " fill="#0D4D95" transform="translate(233,251)"/>
<path d="M0 0 C0 0.66 0 1.32 0 2 C-2.76937583 2.52992381 -5.54003079 3.0492458 -8.3125 3.5625 C-9.09818359 3.71396484 -9.88386719 3.86542969 -10.69335938 4.02148438 C-11.45068359 4.16005859 -12.20800781 4.29863281 -12.98828125 4.44140625 C-13.68477783 4.57232666 -14.38127441 4.70324707 -15.09887695 4.83813477 C-17 5 -17 5 -20 4 C-13.058915 1.09382609 -7.54290017 -0.4946164 0 0 Z " fill="#164F9B" transform="translate(232,153)"/>
<path d="M0 0 C3 1 3 1 4.1875 2.875 C5 5 5 5 5 8 C5.66 8 6.32 8 7 8 C7.33 10.31 7.66 12.62 8 15 C7.34 15 6.68 15 6 15 C4.99539469 12.87717331 3.99644398 10.75166979 3 8.625 C2.443125 7.44164062 1.88625 6.25828125 1.3125 5.0390625 C0 2 0 2 0 0 Z " fill="#125AA7" transform="translate(244,251)"/>
<path d="M0 0 C-0.56847656 0.12117188 -1.13695312 0.24234375 -1.72265625 0.3671875 C-6.54134152 1.41297896 -11.26049889 2.63283622 -16 4 C-17.66246041 4.35371498 -19.32774271 4.69595322 -21 5 C-20.67 4.34 -20.34 3.68 -20 3 C-19.34 3 -18.68 3 -18 3 C-18 2.34 -18 1.68 -18 1 C-15.2162499 -0.39187505 -12.65963917 -0.38330575 -9.5625 -0.625 C-7.83193359 -0.76808594 -7.83193359 -0.76808594 -6.06640625 -0.9140625 C-3 -1 -3 -1 0 0 Z " fill="#116ACA" transform="translate(219,112)"/>
<path d="M0 0 C0.33 0.66 0.66 1.32 1 2 C-0.07408957 4.60474038 -1.20045633 7.09966038 -2.4375 9.625 C-2.77587891 10.33140625 -3.11425781 11.0378125 -3.46289062 11.765625 C-4.30154879 13.51381384 -5.14987847 15.25735686 -6 17 C-7.15049882 13.63287346 -6.84587766 11.74731054 -5.625 8.4375 C-5.34914062 7.67308594 -5.07328125 6.90867187 -4.7890625 6.12109375 C-4.52867187 5.42113281 -4.26828125 4.72117187 -4 4 C-3.67 3.01 -3.34 2.02 -3 1 C-2.01 0.67 -1.02 0.34 0 0 Z " fill="#0E63BD" transform="translate(187,356)"/>
<path d="M0 0 C1.29325654 4.36963952 0.86341934 7.53900006 0 12 C-3 14 -3 14 -6 14 C-4.50829734 9.0276578 -2.39542583 4.58154261 0 0 Z " fill="#0D5BB0" transform="translate(215,198)"/>
<path d="M0 0 C5.54955043 0.57610313 10.26029497 2.02098548 15.4375 4.0625 C16.16904297 4.34416016 16.90058594 4.62582031 17.65429688 4.91601562 C19.43873546 5.60413247 21.21973905 6.30114606 23 7 C23 7.33 23 7.66 23 8 C20.69 8 18.38 8 16 8 C16 7.34 16 6.68 16 6 C15.43152344 5.89042969 14.86304688 5.78085938 14.27734375 5.66796875 C9.17683242 4.62061834 4.715558 3.20728247 0 1 C0 0.67 0 0.34 0 0 Z " fill="#105194" transform="translate(276,112)"/>
<path d="M0 0 C1.20153575 3.97365037 0.637386 6.15214289 -1 10 C-2.5 11.625 -2.5 11.625 -4 13 C-5.17574711 15.09989652 -5.17574711 15.09989652 -6 17 C-7 14 -7 14 -5.56640625 10.64453125 C-4.90851193 9.3619696 -4.24010257 8.08475943 -3.5625 6.8125 C-3.22412109 6.15830078 -2.88574219 5.50410156 -2.53710938 4.83007812 C-1.70030902 3.21540701 -0.85130254 1.60707237 0 0 Z " fill="#0D4C9C" transform="translate(136,364)"/>
<path d="M0 0 C0.99 0 1.98 0 3 0 C5.03993514 4.92984325 6.40652968 8.57960425 6 14 C4 11 4 11 4 9 C3.34 9 2.68 9 2 9 C1.34 6.03 0.68 3.06 0 0 Z " fill="#0F5BB3" transform="translate(322,207)"/>
<path d="M0 0 C0 0.33 0 0.66 0 1 C-7.09784913 2.81774185 -13.65081658 4.43230491 -21 4 C-15.8808999 -1.1191001 -6.75947439 -0.25400948 0 0 Z " fill="#0E4B8D" transform="translate(229,108)"/>
<path d="M0 0 C4.82596069 3.15422267 9.57557408 6.28919117 14 10 C13.67 10.99 13.34 11.98 13 13 C11.82780457 12.21654285 10.66236332 11.42297164 9.5 10.625 C8.8503125 10.18414062 8.200625 9.74328125 7.53125 9.2890625 C7.0259375 8.86367188 6.520625 8.43828125 6 8 C6 7.34 6 6.68 6 6 C5.38125 5.7525 4.7625 5.505 4.125 5.25 C1.62519797 3.77952822 1.16683978 2.58596924 0 0 Z " fill="#186DC0" transform="translate(265,330)"/>
<path d="M0 0 C0.66 0 1.32 0 2 0 C2.433125 0.9590625 2.433125 0.9590625 2.875 1.9375 C3.82823451 4.15206079 3.82823451 4.15206079 6 5 C6.88671875 7.1796875 6.88671875 7.1796875 7.6875 9.875 C7.95949219 10.75929688 8.23148437 11.64359375 8.51171875 12.5546875 C9 15 9 15 8 18 C6.66356841 15.18896187 5.33137766 12.37593488 4 9.5625 C3.6184375 8.76005859 3.236875 7.95761719 2.84375 7.13085938 C2.4828125 6.36708984 2.121875 5.60332031 1.75 4.81640625 C1.41484375 4.10943604 1.0796875 3.40246582 0.734375 2.67407227 C0 1 0 1 0 0 Z " fill="#104F99" transform="translate(279,321)"/>
<path d="M0 0 C3.68465905 3.28987415 5.77894182 6.63720714 8 11 C8 11.99 8 12.98 8 14 C7.34 14 6.68 14 6 14 C5.67 12.02 5.34 10.04 5 8 C3.68 8 2.36 8 1 8 C0.67 5.36 0.34 2.72 0 0 Z " fill="#0C519E" transform="translate(353,169)"/>
<path d="M0 0 C8.36628849 7.05024311 8.36628849 7.05024311 11 10 C11 10.66 11 11.32 11 12 C6.01101158 10.82612037 4.01341878 7.81687611 1.13671875 3.875 C0 2 0 2 0 0 Z " fill="#12579F" transform="translate(330,141)"/>
<path d="M0 0 C2.97246802 2.54782974 4.41535288 5.45340883 6 9 C6 9.66 6 10.32 6 11 C5.34 11 4.68 11 4 11 C3.67 11.99 3.34 12.98 3 14 C1.15968523 12.15968523 1.53355663 9.54615059 1.25390625 7.078125 C0.96191187 4.68826329 0.51436873 2.35139992 0 0 Z " fill="#0D539E" transform="translate(289,249)"/>
<path d="M0 0 C0.66 0 1.32 0 2 0 C1.39254603 4.85963179 -0.72758967 8.7405518 -3 13 C-3.33 13 -3.66 13 -4 13 C-4.36972539 5.4822505 -4.36972539 5.4822505 -2.5625 3.125 C-1.7890625 2.568125 -1.7890625 2.568125 -1 2 C-0.67 1.34 -0.34 0.68 0 0 Z " fill="#1253A0" transform="translate(192,343)"/>
<path d="M0 0 C1.01054862 3.03164585 1.0265912 4.51750751 0.6875 7.625 C0.60886719 8.42164063 0.53023437 9.21828125 0.44921875 10.0390625 C0.22685547 11.00972656 0.22685547 11.00972656 0 12 C-0.99 12.495 -0.99 12.495 -2 13 C-2.66 13.99 -3.32 14.98 -4 16 C-3.65697965 10.01488629 -3.17692157 5.24882694 0 0 Z " fill="#0D65BA" transform="translate(163,307)"/>
<path d="M0 0 C4.3177458 0.50797009 8.03302114 1.19682779 12 3 C12 3.99 12 4.98 12 6 C6 4 6 4 0 2 C0 1.34 0 0.68 0 0 Z " fill="#1B66BD" transform="translate(266,155)"/>
<path d="M0 0 C0 3.54538207 -0.8268882 4.70225088 -2.75 7.625 C-3.26046875 8.42164063 -3.7709375 9.21828125 -4.296875 10.0390625 C-6.18543998 12.21351117 -7.19099964 12.64582169 -10 13 C-8.48446596 9.52224821 -6.4226544 7.0442016 -3.875 4.25 C-3.15054688 3.45078125 -2.42609375 2.6515625 -1.6796875 1.828125 C-0.84824219 0.92320312 -0.84824219 0.92320312 0 0 Z " fill="#0E4B97" transform="translate(145,148)"/>
<path d="M0 0 C0 0.66 0 1.32 0 2 C-0.99 2 -1.98 2 -3 2 C-3.33 2.99 -3.66 3.98 -4 5 C-6.875 6.75 -6.875 6.75 -10 8 C-10.99 7.67 -11.98 7.34 -13 7 C-11.21190303 5.82786955 -9.41940875 4.66244474 -7.625 3.5 C-6.62726563 2.8503125 -5.62953125 2.200625 -4.6015625 1.53125 C-2 0 -2 0 0 0 Z " fill="#0E4A9B" transform="translate(181,122)"/>
<path d="M0 0 C2.31 0 4.62 0 7 0 C7.33 0.99 7.66 1.98 8 3 C9.175625 3.185625 9.175625 3.185625 10.375 3.375 C13 4 13 4 15 6 C8.25 5.25 8.25 5.25 6 3 C4.01643517 2.28591666 2.01684563 1.61382258 0 1 C0 0.67 0 0.34 0 0 Z " fill="#1470D6" transform="translate(292,120)"/>
<path d="M0 0 C1.12894876 0.93274109 2.25300876 1.87140122 3.375 2.8125 C4.00148438 3.33457031 4.62796875 3.85664063 5.2734375 4.39453125 C7 6 7 6 9 9 C6.6875 9.3125 6.6875 9.3125 4 9 C1.76716413 6.12921103 0.80648773 3.49478016 0 0 Z " fill="#0F63B1" transform="translate(252,317)"/>
<path d="M0 0 C2.70272533 2.87164566 3.94791837 4.30991841 4.25 8.3125 C4.1675 9.199375 4.085 10.08625 4 11 C2 10 2 10 0 8 C-0.36933645 5.24627091 -0.18336678 2.79634339 0 0 Z " fill="#0E5FB8" transform="translate(261,194)"/>
<path d="M0 0 C1.05609899 3.16829698 1.13055309 3.98519175 0 7 C-1.4375 8.75 -1.4375 8.75 -3 10 C-3.66 10 -4.32 10 -5 10 C-5.33 10.99 -5.66 11.98 -6 13 C-5.26083824 7.97370003 -3.63107238 3.63107238 0 0 Z " fill="#0974E5" transform="translate(166,189)"/>
<path d="M0 0 C0.99 0.33 1.98 0.66 3 1 C1.18690997 4.77727089 -0.9073259 8.37269822 -3 12 C-3.98120464 8.94736336 -3.98120464 7.05263664 -3 4 C-2.01 4 -1.02 4 0 4 C0 2.68 0 1.36 0 0 Z " fill="#0F5CB0" transform="translate(170,184)"/>
<path d="M0 0 C2.625 0.375 2.625 0.375 5 1 C5 1.99 5 2.98 5 4 C6.32 4.66 7.64 5.32 9 6 C4.6109185 5.48964169 1.66291938 4.47785723 -2 2 C-1.34 1.34 -0.68 0.68 0 0 Z " fill="#1364C8" transform="translate(291,166)"/>
<path d="M0 0 C1.9375 0.8125 1.9375 0.8125 4 2 C4.33 2.99 4.66 3.98 5 5 C4.34 5 3.68 5 3 5 C3 4.34 3 3.68 3 3 C2.34 3 1.68 3 1 3 C0.71125 3.94875 0.4225 4.8975 0.125 5.875 C-1 9 -1 9 -3 11 C-2.67 8.36 -2.34 5.72 -2 3 C-1.34 3 -0.68 3 0 3 C0 2.01 0 1.02 0 0 Z " fill="#115194" transform="translate(238,243)"/>
<path d="M0 0 C0.33 0 0.66 0 1 0 C1.12375 1.0725 1.2475 2.145 1.375 3.25 C1.76941725 6.83529804 1.76941725 6.83529804 3.125 9.125 C4.32398098 11.69424496 3.74097443 13.33249205 3 16 C-0.40208828 12.59791172 -0.05433827 8.22821408 -0.0625 3.625 C-0.041875 2.42875 -0.02125 1.2325 0 0 Z " fill="#1572D6" transform="translate(367,201)"/>
<path d="M0 0 C-0.33 2.31 -0.66 4.62 -1 7 C-2.65 6.67 -4.3 6.34 -6 6 C-3.84615385 0 -3.84615385 0 0 0 Z " fill="#0F6ACF" transform="translate(222,192)"/>
<path d="M0 0 C5.77494139 -0.34649648 9.99303982 -0.29726646 15 3 C15.99 4.485 15.99 4.485 17 6 C14.03 5.01 11.06 4.02 8 3 C8 2.34 8 1.68 8 1 C5.36 1 2.72 1 0 1 C0 0.67 0 0.34 0 0 Z " fill="#0E4A91" transform="translate(244,188)"/>
<path d="M0 0 C0.99 0.33 1.98 0.66 3 1 C0.35039045 4.63094642 -2.01824456 6.89851796 -6 9 C-5.75 6.625 -5.75 6.625 -5 4 C-3 2.8125 -3 2.8125 -1 2 C-0.67 1.34 -0.34 0.68 0 0 Z " fill="#12549D" transform="translate(179,176)"/>
<path d="M0 0 C3.09592835 3.5087188 4.74194623 6.49197399 6 11 C5.01 11 4.02 11 3 11 C3 10.01 3 9.02 3 8 C2.34 8 1.68 8 1 8 C0.67 5.36 0.34 2.72 0 0 Z " fill="#0D4B95" transform="translate(302,274)"/>
<path d="M0 0 C3.09592835 3.5087188 4.74194623 6.49197399 6 11 C4.125 10.875 4.125 10.875 2 10 C0.40155515 6.40349908 0 3.96602757 0 0 Z " fill="#0F4C8F" transform="translate(277,225)"/>
<path d="M0 0 C2.40118527 2.40118527 2.75220861 4.05496042 3.625 7.3125 C3.88539063 8.25738281 4.14578125 9.20226562 4.4140625 10.17578125 C4.97479648 12.87851902 5.1101876 15.25031848 5 18 C4.33333333 16.66666667 3.66666667 15.33333333 3 14 C2.6596875 13.401875 2.319375 12.80375 1.96875 12.1875 C0.84325728 9.64606483 0.59324494 7.51443591 0.375 4.75 C0.30023438 3.85796875 0.22546875 2.9659375 0.1484375 2.046875 C0.09945313 1.37140625 0.05046875 0.6959375 0 0 Z " fill="#093B7A" transform="translate(367,198)"/>
<path d="M0 0 C1.32 0 2.64 0 4 0 C4 0.66 4 1.32 4 2 C5.32 2 6.64 2 8 2 C8.33 3.98 8.66 5.96 9 8 C7.87411986 7.04270084 6.7493285 6.08412105 5.625 5.125 C4.99851563 4.59132813 4.37203125 4.05765625 3.7265625 3.5078125 C2.44163349 2.38567993 1.20628025 1.20628025 0 0 Z " fill="#0D4A90" transform="translate(220,344)"/>
<path d="M0 0 C1.8871875 0.061875 1.8871875 0.061875 3.8125 0.125 C3.8125 0.785 3.8125 1.445 3.8125 2.125 C-2.5875 4.34038462 -2.5875 4.34038462 -5.625 3.25 C-6.140625 2.87875 -6.65625 2.5075 -7.1875 2.125 C-4.09861478 0.06574319 -3.47814073 -0.1140374 0 0 Z " fill="#0D58AE" transform="translate(188.1875,118.875)"/>
<path d="M0 0 C0.33 0 0.66 0 1 0 C1.3125 2.6875 1.3125 2.6875 1 6 C-1.3125 8.875 -1.3125 8.875 -4 11 C-4.99 11 -5.98 11 -7 11 C-6.67 10.01 -6.34 9.02 -6 8 C-4.68 8 -3.36 8 -2 8 C-2 7.01 -2 6.02 -2 5 C-1.34 5 -0.68 5 0 5 C0 3.35 0 1.7 0 0 Z " fill="#1351A5" transform="translate(373,395)"/>
<path d="M0 0 C5.35048061 0.37328935 7.50912907 1.9957657 11 6 C9.35 6.33 7.7 6.66 6 7 C6.33 6.01 6.66 5.02 7 4 C6.34 4 5.68 4 5 4 C5 3.34 5 2.68 5 2 C3.35 1.67 1.7 1.34 0 1 C0 0.67 0 0.34 0 0 Z " fill="#14509A" transform="translate(223,296)"/>
<path d="M0 0 C2.31 0 4.62 0 7 0 C7.99 1.98 8.98 3.96 10 6 C6.00499382 4.6302836 3.19990508 2.74277578 0 0 Z " fill="#10529E" transform="translate(279,161)"/>
<path d="M0 0 C0.33 1.32 0.66 2.64 1 4 C2.32 3.67 3.64 3.34 5 3 C5.33 4.65 5.66 6.3 6 8 C5.01 8.33 4.02 8.66 3 9 C3 8.34 3 7.68 3 7 C2.34 7 1.68 7 1 7 C0.67 4.69 0.34 2.38 0 0 Z " fill="#0E6BD7" transform="translate(325,321)"/>
<path d="M0 0 C1.32 0.33 2.64 0.66 4 1 C4.66 3.31 5.32 5.62 6 8 C6.66 8 7.32 8 8 8 C7.67 8.66 7.34 9.32 7 10 C6.01 9.67 5.02 9.34 4 9 C3.29618843 7.01276732 2.6288189 5.01222047 2 3 C1.34 2.67 0.68 2.34 0 2 C0 1.34 0 0.68 0 0 Z " fill="#146CCF" transform="translate(239,242)"/>
<path d="M0 0 C0.33 0 0.66 0 1 0 C1.29296875 6.0546875 1.29296875 6.0546875 1 8 C0.01 8.66 -0.98 9.32 -2 10 C-3.39195915 5.82412255 -1.82323219 3.86525224 0 0 Z " fill="#105FB6" transform="translate(150,334)"/>
<path d="M0 0 C1 3 1 3 0.00390625 5.26171875 C-0.47175781 6.06222656 -0.94742188 6.86273438 -1.4375 7.6875 C-1.91058594 8.49574219 -2.38367188 9.30398438 -2.87109375 10.13671875 C-3.24363281 10.75160156 -3.61617187 11.36648438 -4 12 C-4.33 12 -4.66 12 -5 12 C-5.25 9.25 -5.25 9.25 -5 6 C-3.0625 3.75 -3.0625 3.75 -1 2 C-0.67 1.34 -0.34 0.68 0 0 Z " fill="#0A4483" transform="translate(152,292)"/>
<path d="M0 0 C1.65 0 3.3 0 5 0 C2.11912454 2.40072955 -0.56404834 4.47291037 -4 6 C-4 4.68 -4 3.36 -4 2 C-2.68 2 -1.36 2 0 2 C0 1.34 0 0.68 0 0 Z " fill="#1157AA" transform="translate(192,165)"/>
<path d="M0 0 C2.97 0.495 2.97 0.495 6 1 C6.66 2.98 7.32 4.96 8 7 C4.46399535 5.08864614 2.21027154 3.37357234 0 0 Z " fill="#1156A4" transform="translate(254,373)"/>
<path d="M0 0 C3.0916909 2.52956528 3.90931332 5.22454612 5 9 C3 9 3 9 1.375 7.875 C-0.55651159 5.24112056 -0.21205536 3.18083044 0 0 Z " fill="#1559A5" transform="translate(321,312)"/>
<path d="M0 0 C0.66 0 1.32 0 2 0 C2.25532751 3.06393013 2.21861333 4.63233212 0.625 7.3125 C-0.179375 8.1478125 -0.179375 8.1478125 -1 9 C-1.66 9 -2.32 9 -3 9 C-2.01 6.03 -1.02 3.06 0 0 Z " fill="#1762AE" transform="translate(167,298)"/>
<path d="M0 0 C0.66 0 1.32 0 2 0 C2 0.66 2 1.32 2 2 C2.66 2 3.32 2 4 2 C4.66 4.31 5.32 6.62 6 9 C5.01 9.495 5.01 9.495 4 10 C3.32845067 8.71086513 2.66291141 7.41859796 2 6.125 C1.62875 5.40570313 1.2575 4.68640625 0.875 3.9453125 C0 2 0 2 0 0 Z " fill="#1360B1" transform="translate(317,196)"/>
<path d="M0 0 C3 1 3 1 4.1875 2.75 C5.10819096 5.29960574 5.14948718 7.30923081 5 10 C2.35534962 6.8745041 1.15585285 3.91211733 0 0 Z " fill="#105498" transform="translate(274,311)"/>
<path d="M0 0 C2.0625 2.25 2.0625 2.25 4 5 C3.75 7.3125 3.75 7.3125 3 9 C2.01 8.34 1.02 7.68 0 7 C-0.1875 3.375 -0.1875 3.375 0 0 Z " fill="#1058AB" transform="translate(313,296)"/>
<path d="M0 0 C0.99 0.33 1.98 0.66 3 1 C3 2.32 3 3.64 3 5 C3.99 5.33 4.98 5.66 6 6 C5.01 7.485 5.01 7.485 4 9 C0 3.375 0 3.375 0 0 Z " fill="#145FB1" transform="translate(266,294)"/>
<path d="M0 0 C2.22825644 2.22825644 2.69239369 3.65761628 3.625 6.625 C4.01558594 7.85089844 4.01558594 7.85089844 4.4140625 9.1015625 C4.60742188 9.72804688 4.80078125 10.35453125 5 11 C4.01 11 3.02 11 2 11 C0.80712589 7.12315913 0 4.08378077 0 0 Z " fill="#145DA9" transform="translate(295,260)"/>
<path d="M0 0 C0.99 0 1.98 0 3 0 C4.35439668 2.70879335 4.06501451 5.00933268 4 8 C3.67 7.34 3.34 6.68 3 6 C2.34 6 1.68 6 1 6 C0.67 4.02 0.34 2.04 0 0 Z " fill="#126BC8" transform="translate(285,245)"/>
<path d="M0 0 C1 2 1 2 0.25 5.5625 C-0.1625 6.696875 -0.575 7.83125 -1 9 C-1.99 9.33 -2.98 9.66 -4 10 C-3.52449439 8.51965236 -3.04448784 7.04074979 -2.5625 5.5625 C-2.29566406 4.73878906 -2.02882813 3.91507812 -1.75390625 3.06640625 C-1 1 -1 1 0 0 Z " fill="#1155A5" transform="translate(128,381)"/>
<path d="M0 0 C0.99 1.485 0.99 1.485 2 3 C2.66 3 3.32 3 4 3 C4.33 2.01 4.66 1.02 5 0 C5.33 0.66 5.66 1.32 6 2 C5.0625 4.125 5.0625 4.125 4 6 C2.68 6 1.36 6 0 6 C0 4.02 0 2.04 0 0 Z " fill="#134F8C" transform="translate(110,371)"/>
<path d="M0 0 C0.33 0.66 0.66 1.32 1 2 C0.22265625 4.1640625 0.22265625 4.1640625 -0.9375 6.625 C-1.31777344 7.44226563 -1.69804687 8.25953125 -2.08984375 9.1015625 C-2.39019531 9.72804688 -2.69054687 10.35453125 -3 11 C-3.95199108 7.61033479 -4.07772072 5.41278228 -3 2 C-2.01 1.34 -1.02 0.68 0 0 Z " fill="#165DB3" transform="translate(184,362)"/>
<path d="M0 0 C4 4.625 4 4.625 4 8 C2.68 7.67 1.36 7.34 0 7 C0 4.69 0 2.38 0 0 Z " fill="#0F67CC" transform="translate(296,350)"/>
<path d="M0 0 C4.42857143 5.14285714 4.42857143 5.14285714 5 9 C3.68 8.67 2.36 8.34 1 8 C0.67 5.36 0.34 2.72 0 0 Z " fill="#1053A0" transform="translate(272,216)"/>
<path d="M0 0 C2.31 1.98 4.62 3.96 7 6 C6.67 6.66 6.34 7.32 6 8 C3.5625 6.8125 3.5625 6.8125 1 5 C0.1875 2.3125 0.1875 2.3125 0 0 Z " fill="#0A4C9A" transform="translate(341,153)"/>
<path d="M0 0 C2.97 0.495 2.97 0.495 6 1 C6.33 2.32 6.66 3.64 7 5 C5.68 4.67 4.36 4.34 3 4 C3 3.34 3 2.68 3 2 C2.01 1.67 1.02 1.34 0 1 C0 0.67 0 0.34 0 0 Z " fill="#0F4891" transform="translate(284,400)"/>
<path d="M0 0 C0.99 0.33 1.98 0.66 3 1 C2.01 3.97 1.02 6.94 0 10 C-1.00000429 5.99998285 -0.80688405 3.94476647 0 0 Z " fill="#0F4C96" transform="translate(173,380)"/>
<path d="M0 0 C1.98 0.99 1.98 0.99 4 2 C4 3.65 4 5.3 4 7 C2.68 7 1.36 7 0 7 C0.33 6.34 0.66 5.68 1 5 C0.59070014 2.94603274 0.59070014 2.94603274 0 1 C0 0.67 0 0.34 0 0 Z " fill="#15519D" transform="translate(292,347)"/>
<path d="M0 0 C0.66 0 1.32 0 2 0 C0.25 5.75 0.25 5.75 -2 8 C-1.125 1.125 -1.125 1.125 0 0 Z " fill="#0E4890" transform="translate(178,373)"/>
<path d="M0 0 C1.98 1.65 3.96 3.3 6 5 C5.01 5.33 4.02 5.66 3 6 C2.01 5.34 1.02 4.68 0 4 C0 2.68 0 1.36 0 0 Z " fill="#0F4E96" transform="translate(236,303)"/>
<path d="M0 0 C0.33 0 0.66 0 1 0 C1 1.98 1 3.96 1 6 C0.34 6 -0.32 6 -1 6 C-1.33 6.99 -1.66 7.98 -2 9 C-2.33 8.34 -2.66 7.68 -3 7 C-2.06421005 4.64018187 -1.06652192 2.30368736 0 0 Z " fill="#0D4E8A" transform="translate(208,212)"/>
<path d="M0 0 C3 1 3 1 4.75 3.9375 C5.1625 4.948125 5.575 5.95875 6 7 C5.67 7.66 5.34 8.32 5 9 C4.16094435 7.87926138 3.32892169 6.75325453 2.5 5.625 C2.0359375 4.99851563 1.571875 4.37203125 1.09375 3.7265625 C0 2 0 2 0 0 Z " fill="#0C478A" transform="translate(309,184)"/>
</svg>
