<svg width="100" height="100" viewBox="0 0 100 100" fill="none" xmlns="http://www.w3.org/2000/svg">
  <path d="M50 10C27.9086 10 10 27.9086 10 50C10 72.0914 27.9086 90 50 90C72.0914 90 90 72.0914 90 50C90 27.9086 72.0914 10 50 10ZM50 20C66.5685 20 80 33.4315 80 50C80 66.5685 66.5685 80 50 80C33.4315 80 20 66.5685 20 50C20 33.4315 33.4315 20 50 20Z" fill="url(#gradient1)"/>
  <path d="M35 65L42 35H48L55 55L62 35H68L75 65H68L64 45L57 65H53L46 45L42 65H35Z" fill="url(#gradient2)"/>
  <path d="M40 40L50 25L60 40L55 50L50 45L45 50L40 40Z" fill="url(#gradient3)"/>
  <defs>
    <linearGradient id="gradient1" x1="10" y1="10" x2="90" y2="90" gradientUnits="userSpaceOnUse">
      <stop offset="0%" stop-color="#06b6d4"/>
      <stop offset="50%" stop-color="#8b5cf6"/>
      <stop offset="100%" stop-color="#ec4899"/>
    </linearGradient>
    <linearGradient id="gradient2" x1="35" y1="35" x2="75" y2="65" gradientUnits="userSpaceOnUse">
      <stop offset="0%" stop-color="#ffffff"/>
      <stop offset="100%" stop-color="#e0e7ff"/>
    </linearGradient>
    <linearGradient id="gradient3" x1="40" y1="25" x2="60" y2="50" gradientUnits="userSpaceOnUse">
      <stop offset="0%" stop-color="#ffffff"/>
      <stop offset="100%" stop-color="#ddd6fe"/>
    </linearGradient>
  </defs>
</svg>
